<?xml version="1.0" encoding="UTF-8"?>
<svg width="25px" height="25px" viewBox="0 0 25 25" version="1.1" xmlns="http://www.w3.org/2000/svg" xmlns:xlink="http://www.w3.org/1999/xlink">
    <!-- Generator: Sketch 48.1 (47250) - http://www.bohemiancoding.com/sketch -->
    <title>Fill 183</title>
    <desc>Created with Sketch.</desc>
    <defs></defs>
    <g id="Desktop---Home" stroke="none" stroke-width="1" fill="none" fill-rule="evenodd" transform="translate(-1224.000000, -2302.000000)">
        <g id="Group-3" transform="translate(1224.000000, 2302.000000)" fill="#FFFFFF">
            <path d="M15.7460938,8.325 L14.5695313,8.32578125 C13.646875,8.32578125 13.4679688,8.7640625 13.4679688,9.40703125 L13.4679688,10.8257812 L15.66875,10.8257812 L15.3820312,13.0484375 L13.4679688,13.0484375 L13.4679688,18.75 L11.1734375,18.75 L11.1734375,13.0484375 L9.2546875,13.0484375 L9.2546875,10.8257812 L11.1734375,10.8257812 L11.1734375,9.1875 C11.1734375,7.28515625 12.3351563,6.25 14.03125,6.25 C14.84375,6.25 15.5421875,6.31015625 15.7460938,6.3375 L15.7460938,8.325 Z M12.5,0 C5.596875,0 0,5.59609375 0,12.5 C0,19.403125 5.596875,25 12.5,25 C19.4039063,25 25,19.403125 25,12.5 C25,5.59609375 19.4039063,0 12.5,0 L12.5,0 Z" id="Fill-183"></path>
        </g>
    </g>
</svg>