<?xml version="1.0" encoding="UTF-8"?>
<svg width="416px" height="113px" viewBox="0 0 416 113" version="1.1" xmlns="http://www.w3.org/2000/svg" xmlns:xlink="http://www.w3.org/1999/xlink">
    <!-- Generator: Sketch 48.1 (47250) - http://www.bohemiancoding.com/sketch -->
    <title>cora_vector</title>
    <desc>Created with Sketch.</desc>
    <defs>
        <polygon id="path-1" points="0 0 417 0 417 113 0 113"></polygon>
    </defs>
    <g id="Cora_Logo-Dark" stroke="none" stroke-width="1" fill="none" fill-rule="evenodd" transform="translate(-64.000000, -66.000000)">
        <g id="cora_vector" transform="translate(64.000000, 66.000000)">
            <mask id="mask-2" fill="white">
                <use xlink:href="#path-1"></use>
            </mask>
            <g id="Clip-2"></g>
            <path d="M158.5,84.75 C142.923264,84.75 130.25,72.0771285 130.25,56.5 C130.25,40.9228715 142.923264,28.25 158.5,28.25 C174.077128,28.25 186.75,40.9228715 186.75,56.5 C186.75,72.0771285 174.077128,84.75 158.5,84.75 Z M158.5,0 C127.295913,0 102,25.2959132 102,56.5 C102,87.7040868 127.295913,113 158.5,113 C189.704087,113 215,87.7040868 215,56.5 C215,25.2959132 189.704087,0 158.5,0 Z" id="Fill-1" fill="#0A0B09" mask="url(#mask-2)"></path>
            <path d="M76.9007054,76.4668646 C71.7564192,81.5820764 64.6537767,84.75 56.8211403,84.75 C41.155473,84.75 28.4105702,72.0771285 28.4105702,56.5 C28.4105702,40.9228715 41.155473,28.25 56.8211403,28.25 C64.6541713,28.25 71.7568138,31.418316 76.9011,36.5339201 L97,16.5486146 C86.7173466,6.32407639 72.5120615,0 56.8211403,0 C25.4396926,0 0,25.2959132 0,56.5 C0,87.7040868 25.4396926,113 56.8211403,113 C72.5116669,113 86.716952,106.676316 96.9996054,96.4517778 L76.9007054,76.4668646" id="Fill-3" fill="#0A0B09" mask="url(#mask-2)"></path>
            <path d="M359.499215,84.75 C343.922087,84.75 331.25,72.0771285 331.25,56.5 C331.25,40.9228715 343.922087,28.25 359.499215,28.25 C375.076736,28.25 387.749215,40.9228715 387.749215,56.5 C387.749215,72.0771285 375.076736,84.75 359.499215,84.75 Z M359.499215,0 C328.295913,0 303,25.2959132 303,56.5 C303,87.7040868 328.295913,113 359.499215,113 C369.790847,113 379.439007,110.247194 387.749215,105.439201 L387.749215,113 L416,113 L416,56.5 C416,25.2959132 390.703302,0 359.499215,0 Z" id="Fill-4" fill="#0A0B09" mask="url(#mask-2)"></path>
            <path d="M290,0 C258.519375,0 233,25.2959132 233,56.5 L233,113 L261.5,113 L261.5,56.5 C261.5,40.9228715 274.284625,28.25 290,28.25 L290,0" id="Fill-5" fill="#0A0B09" mask="url(#mask-2)"></path>
        </g>
    </g>
</svg>