<?xml version="1.0" encoding="UTF-8"?>
<svg width="382px" height="181px" viewBox="0 0 382 181" version="1.1" xmlns="http://www.w3.org/2000/svg" xmlns:xlink="http://www.w3.org/1999/xlink">
    <!-- Generator: Sketch 48.1 (47250) - http://www.bohemiancoding.com/sketch -->
    <title>Page 1</title>
    <desc>Created with Sketch.</desc>
    <defs></defs>
    <g id="Logo/Flyer-Dark" stroke="none" stroke-width="1" fill="none" fill-rule="evenodd">
        <g id="Page-1" fill="#000000">
            <path d="M284.626,38.2436 C284.513,37.9296 284.462,37.7406 284.38,37.5656 C284.004,36.7656 283.436,36.4376 282.647,36.7236 C280.196,37.6146 277.703,38.4256 275.341,39.5166 C272.835,40.6736 270.436,42.0746 268.033,43.4436 C263.69,45.9176 259.637,48.8306 255.651,51.8336 C253.731,53.2806 251.86,54.7926 249.986,56.2996 C249.166,56.9586 248.394,57.6796 247.601,58.3726 C247.609,58.4526 247.617,58.5316 247.625,58.6116 C247.979,58.6486 248.402,58.8326 248.676,58.7016 C251.878,57.1686 255.091,55.6506 258.235,54.0046 C261.485,52.3026 264.707,50.5356 267.863,48.6676 C272.321,46.0296 276.713,43.2796 281.121,40.5576 C282.305,39.8266 283.446,39.0256 284.626,38.2436 Z M295.5,37.4046 C291.879,39.7266 288.26,42.0516 284.616,44.3356 C281.054,46.5686 277.477,48.7766 273.88,50.9536 C271.601,52.3336 269.303,53.6886 266.962,54.9606 C262.443,57.4156 257.914,59.8546 253.337,62.1986 C251.191,63.2976 248.924,64.1606 246.564,65.1956 C247.08,65.9136 247.599,66.6836 248.168,67.4136 C248.496,67.8356 248.919,67.9756 249.471,67.7126 C252.741,66.1536 256.039,64.6516 259.295,63.0646 C264.146,60.7016 268.984,58.3096 273.801,55.8786 C277.345,54.0906 280.855,52.2346 284.364,50.3776 C285.595,49.7266 286.778,48.9856 287.98,48.2806 C288.567,47.9366 289.182,48.0986 289.242,48.7366 C289.369,50.0906 289.374,51.4566 289.402,52.8186 C289.404,52.9376 289.229,53.0966 289.098,53.1766 C286.971,54.4786 284.865,55.8176 282.702,57.0566 C278.648,59.3786 274.593,61.7036 270.478,63.9136 C266.439,66.0816 262.365,68.1956 258.23,70.1736 C252.767,72.7866 247.193,75.1506 241.418,77.0166 C240.31,77.3746 239.427,77.1306 238.548,76.5286 C236.531,75.1466 234.833,73.4306 233.359,71.4936 C232.396,70.2276 231.402,68.9696 230.588,67.6086 C229.168,65.2356 229.581,65.0236 231.068,63.2796 C233.349,60.6036 235.737,58.0086 238.223,55.5226 C240.104,53.6416 242.201,51.9766 244.215,50.2306 C247.742,47.1746 251.54,44.4806 255.477,41.9916 C258.08,40.3466 260.765,38.8266 263.455,37.3256 C267.605,35.0086 271.959,33.1206 276.384,31.4056 C280.685,29.7386 285.085,28.3616 289.574,27.2946 C291.163,26.9176 292.257,27.8536 293.093,29.0796 C294.556,31.2246 295.435,33.6326 296.149,36.1066 C296.326,36.7206 295.947,37.1186 295.5,37.4046 Z M332.241,28.4886 C334.285,25.9206 336.269,23.3026 338.389,20.7996 C340.339,18.4976 342.432,16.3166 344.471,14.0906 C344.998,13.5156 345.022,12.9876 344.469,12.4306 C343.39,11.3416 342.363,10.1906 341.199,9.2006 C340.276,8.4166 339.245,7.6926 338.146,7.1986 C336.79,6.5896 336.267,6.7266 335.451,7.6786 C334.776,8.4656 334.079,9.2316 333.412,10.0246 C331.605,12.1706 329.723,14.2596 328.026,16.4896 C324.545,21.0636 321.288,25.7946 318.254,30.6846 C314.612,36.5566 311.284,42.5946 308.175,48.7596 C307.741,49.6196 307.702,50.4626 308.139,51.2966 C308.726,52.4166 309.251,53.5986 310.016,54.5886 C310.772,55.5666 311.745,56.4006 312.715,57.1826 C313.51,57.8246 314.35,57.6176 314.768,56.8356 C316.5,53.5966 318.184,50.3296 319.969,47.1196 C321.542,44.2896 323.163,41.4736 325.751,39.3966 C327.377,38.0906 328.96,36.7226 330.654,35.5096 C335.238,32.2276 340.161,29.4966 345.154,26.9056 C348.633,25.0996 352.168,23.3956 355.725,21.7476 C359.825,19.8476 363.954,18.0046 368.114,16.2396 C372.335,14.4486 376.607,12.7786 380.861,11.0656 C382.004,10.6046 382.022,10.6216 381.994,9.3346 C381.986,8.9696 381.934,8.5976 381.844,8.2436 C381.522,6.9726 381.263,5.6736 380.81,4.4486 C380.389,3.3106 379.899,3.1606 378.786,3.6396 C375.848,4.9066 372.887,6.1296 370.005,7.5166 C366.095,9.3996 362.221,11.3636 358.387,13.3976 C354.8,15.2996 351.278,17.3246 347.743,19.3236 C345.381,20.6586 343.028,22.0086 340.706,23.4106 C337.908,25.0996 335.147,26.8496 332.371,28.5736 C332.328,28.5456 332.284,28.5166 332.241,28.4886 Z M130.158,28.6876 C127.893,32.5176 125.575,36.3176 123.366,40.1806 C121.665,43.1536 120.052,46.1806 118.483,49.2266 C116.698,52.6936 114.954,56.1836 113.286,59.7076 C111.276,63.9516 109.337,68.2296 107.421,72.5156 C106.036,75.6146 104.665,78.7226 103.415,81.8776 C101.384,87.0016 99.376,92.1366 97.507,97.3216 C95.267,103.5386 93.117,109.7916 91.053,116.0706 C89.53,120.7006 88.231,125.4046 86.779,130.0576 C86.425,131.1916 86.495,132.1146 87.35,132.9856 C87.809,133.4526 88.118,134.0626 88.553,134.5576 C89.476,135.6076 90.335,136.7546 91.628,137.3826 C93.016,138.0566 93.549,137.6976 93.938,136.5146 C95.059,133.1076 96.19,129.7036 97.383,126.3216 C98.933,121.9296 100.488,117.5366 102.146,113.1836 C104.368,107.3476 106.619,101.5216 108.993,95.7466 C110.951,90.9806 113.064,86.2766 115.185,81.5806 C116.868,77.8546 118.61,74.1536 120.43,70.4936 C122.492,66.3456 124.638,62.2386 126.807,58.1456 C128.273,55.3786 129.778,52.6266 131.381,49.9376 C133.996,45.5506 136.615,41.1596 139.421,36.8956 C140.453,35.3286 140.306,34.0856 139.414,32.7066 C138.323,31.0206 136.863,29.7146 135.137,28.6986 C134.231,28.1656 133.342,27.5946 132.244,27.5536 C131.307,27.4976 130.63,27.8896 130.158,28.6876 Z M147.702,174.1256 C149.984,169.5916 152.28,165.0646 154.61,160.5556 C156.476,156.9426 158.39,153.3546 160.3,149.7646 C161.633,147.2576 162.968,144.7516 164.35,142.2706 C166.23,138.8946 168.15,135.5406 170.063,132.1826 C171.602,129.4856 173.123,126.7766 174.711,124.1086 C176.812,120.5796 178.944,117.0696 181.112,113.5806 C184.182,108.6406 187.241,103.6926 190.408,98.8146 C193.324,94.3236 196.334,89.8906 199.384,85.4896 C202.102,81.5676 204.897,77.6986 207.724,73.8546 C209.7,71.1686 211.785,68.5636 213.829,65.9286 C214.287,65.3376 214.59,64.7396 214.233,63.9776 C213.769,62.9886 213.431,61.9226 212.855,61.0046 C211.185,58.3446 209.276,55.8706 206.504,54.2466 C205.15,53.4536 204.219,53.3486 203.47,54.7106 C203.33,54.9656 203.114,55.1786 202.932,55.4096 C200.482,58.5106 198.048,61.6236 195.577,64.7056 C193.946,66.7396 192.279,68.7446 190.595,70.7336 C189.207,72.3716 187.791,73.9876 186.348,75.5766 C184.449,77.6696 182.562,79.7776 180.577,81.7866 C177.46,84.9426 174.275,88.0336 171.097,91.1286 C169.891,92.3036 168.648,93.4436 167.378,94.5486 C164.999,96.6186 162.637,98.7136 160.176,100.6836 C157.594,102.7496 154.904,104.6806 152.265,106.6746 C151.746,107.0676 151.209,107.0866 150.695,106.7216 C150.149,106.3336 149.405,106.0216 149.518,105.1796 C149.644,104.2406 149.793,103.2866 150.092,102.3926 C151.528,98.0876 153.473,94.0036 155.651,90.0316 C158.404,85.0116 161.174,80.0006 164.005,75.0246 C164.73,73.7526 164.573,73.3806 163.569,72.2676 C161.604,70.0896 159.062,68.9256 156.291,68.1936 C155.052,67.8656 154.771,67.9986 154.042,69.0986 C152.894,70.8306 151.723,72.5496 150.637,74.3206 C148.668,77.5286 146.682,80.7286 144.842,84.0106 C143.155,87.0186 141.623,90.1166 140.075,93.2006 C138.427,96.4816 137.105,99.8926 136.207,103.4586 C135.952,104.4706 135.616,105.5166 136.326,106.4896 C137.034,107.4586 137.663,108.5206 138.524,109.3346 C140.188,110.9066 141.994,112.3266 143.732,113.8206 C144.945,114.8626 146.193,114.9296 147.55,114.0886 C148.858,113.2776 150.262,112.6086 151.521,111.7296 C155.234,109.1406 158.923,106.5156 162.567,103.8296 C164.779,102.2006 166.897,100.4426 169.043,98.7256 C170.694,97.4046 172.325,96.0596 173.962,94.7226 C175.865,93.1676 177.778,91.6236 179.663,90.0476 C181.157,88.7976 182.613,87.5026 184.091,86.2326 C185.811,84.7556 187.534,83.2836 189.258,81.8116 C189.852,81.3056 190.451,80.8066 191.048,80.3046 C190.925,80.8456 190.692,81.2686 190.439,81.6806 C188.084,85.5116 185.702,89.3266 183.373,93.1736 C180.88,97.2926 178.434,101.4406 175.972,105.5776 C174.084,108.7496 172.183,111.9136 170.327,115.1036 C168.261,118.6556 166.19,122.2066 164.209,125.8066 C161.66,130.4386 159.157,135.0986 156.71,139.7856 C154.77,143.5006 152.929,147.2686 151.073,151.0266 C149.336,154.5416 147.622,158.0686 145.924,161.6036 C143.835,165.9516 141.775,170.3136 139.696,174.6666 C139.373,175.3436 139.332,175.9716 139.816,176.6006 C140.322,177.2596 140.709,178.0336 141.3,178.5976 C142.246,179.4986 143.185,180.5636 144.811,180.1426 C145.769,178.1426 146.7,176.1166 147.702,174.1256 Z M0,166.8826 C0.448,165.2746 0.891,163.6656 1.345,162.0596 C2.096,159.4096 2.816,156.7496 3.619,154.1156 C5.068,149.3586 6.562,144.6146 8.048,139.8696 C8.917,137.0996 9.785,134.3306 10.692,131.5736 C13.011,124.5286 15.329,117.4826 17.692,110.4526 C19.145,106.1296 20.654,101.8256 22.189,97.5306 C24.158,92.0196 26.136,86.5106 28.189,81.0306 C30.105,75.9146 32.101,70.8276 34.105,65.7456 C35.761,61.5476 37.44,57.3566 39.183,53.1936 C40.598,49.8146 42.074,46.4576 43.612,43.1326 C45.351,39.3766 47.177,35.6606 49.001,31.9446 C49.202,31.5346 49.572,31.1076 49.973,30.9086 C53.089,29.3616 56.201,27.7996 59.375,26.3766 C63.45,24.5496 67.563,22.7996 71.694,21.1016 C76.861,18.9786 82.046,16.8956 87.259,14.8866 C91.011,13.4396 94.815,12.1236 98.608,10.7816 C102.907,9.2596 107.206,7.7316 111.53,6.2816 C115.344,5.0016 119.177,3.7746 123.03,2.6196 C126.064,1.7106 129.141,0.9466 132.198,0.1136 C132.232,0.1036 132.251,0.0386 132.278,-0.0004 L133.477,-0.0004 C133.486,0.8776 133.559,1.7616 133.489,2.6336 C133.396,3.8036 133.255,4.9766 133.022,6.1256 C132.579,8.3026 131.291,9.9256 129.353,10.9356 C125.242,13.0786 121.092,15.1466 116.951,17.2296 C115.068,18.1766 113.17,19.0926 111.274,20.0146 C107.836,21.6846 104.396,23.3516 100.955,25.0156 C98.264,26.3166 95.572,27.6126 92.879,28.9086 C89.039,30.7566 85.199,32.6056 81.355,34.4476 C78.132,35.9936 74.906,37.5326 71.678,39.0686 C68.605,40.5306 65.53,41.9866 62.454,43.4416 C60.861,44.1946 59.253,44.9156 57.68,45.7056 C57.318,45.8876 56.972,46.2436 56.787,46.6066 C55.193,49.7266 53.569,52.8336 52.088,56.0086 C50.179,60.1036 48.354,64.2406 46.566,68.3906 C44.829,72.4256 43.152,76.4866 41.512,80.5606 C40.21,83.7956 39.001,87.0676 37.759,90.3266 C37.407,91.2516 37.086,92.1896 36.719,93.2136 C38.062,92.8666 39.331,92.5476 40.595,92.2096 C43.844,91.3396 47.09,90.4606 50.338,89.5856 C54.127,88.5646 57.915,87.5396 61.706,86.5236 C64.814,85.6906 67.924,84.8706 71.033,84.0406 C71.504,83.9146 71.965,83.7506 72.437,83.6306 C72.98,83.4926 73.35,83.6386 73.248,84.2856 C72.928,86.3136 72.656,88.3526 72.239,90.3616 C71.849,92.2436 71.136,94.0206 69.829,95.4816 C69.379,95.9836 68.891,96.5266 68.305,96.8186 C65.786,98.0706 63.224,99.2396 60.676,100.4336 C59.281,101.0886 57.884,101.7396 56.483,102.3806 C52.459,104.2206 48.433,106.0566 44.406,107.8896 C40.09,109.8536 35.771,111.8116 31.455,113.7766 C30.431,114.2426 29.41,114.7166 28.397,115.2056 C28.278,115.2636 28.188,115.4326 28.136,115.5696 C27.248,117.9196 26.329,120.2586 25.494,122.6266 C22.916,129.9396 20.347,137.2566 17.822,144.5886 C16.059,149.7076 14.343,154.8446 12.665,159.9926 C11.418,163.8166 10.259,167.6686 9.07,171.5116 C8.681,172.7676 8.326,174.0356 7.939,175.2926 C7.676,176.1436 7.099,176.3966 6.301,176.0176 C4.756,175.2856 3.661,174.0436 2.706,172.6886 C1.754,171.3376 0.898,169.9186 0,168.5306 L0,166.8826 Z" id="Fill-1"></path>
        </g>
    </g>
</svg>