<?xml version="1.0" encoding="UTF-8"?>
<svg width="25px" height="25px" viewBox="0 0 25 25" version="1.1" xmlns="http://www.w3.org/2000/svg" xmlns:xlink="http://www.w3.org/1999/xlink">
    <!-- Generator: Sketch 48.1 (47250) - http://www.bohemiancoding.com/sketch -->
    <title>Fill 184</title>
    <desc>Created with Sketch.</desc>
    <defs></defs>
    <g id="Desktop---Home" stroke="none" stroke-width="1" fill="none" fill-rule="evenodd" transform="translate(-1294.000000, -2302.000000)">
        <g id="Group-3" transform="translate(1224.000000, 2302.000000)" fill="#FFFFFF">
            <path d="M87.4703125,9.95078125 C87.475,10.0609375 87.478125,10.1710938 87.478125,10.2828125 C87.478125,13.6710937 84.8984375,17.5789062 80.18125,17.5789062 C78.7328125,17.5789062 77.3851562,17.1546875 76.25,16.4273437 C76.4507812,16.4507812 76.6546875,16.4625 76.8617187,16.4625 C78.0632813,16.4625 79.16875,16.053125 80.046875,15.3648437 C78.9242187,15.3445312 77.9773438,14.603125 77.6507812,13.584375 C77.8078125,13.6140625 77.9679687,13.6296875 78.1335938,13.6296875 C78.3671875,13.6296875 78.59375,13.5984375 78.809375,13.5398437 C77.6359375,13.3046875 76.7523437,12.2679687 76.7523437,11.0257812 L76.7523437,10.9929687 C77.0976562,11.1851563 77.49375,11.3007812 77.9140625,11.3140625 C77.2257812,10.8539062 76.7726562,10.06875 76.7726562,9.1796875 C76.7726562,8.709375 76.8992187,8.26875 77.1203125,7.88984375 C78.3851562,9.44140625 80.275,10.4625 82.40625,10.5695312 C82.3625,10.3820312 82.3398437,10.1859375 82.3398437,9.98515625 C82.3398437,8.56875 83.4882812,7.4203125 84.9039063,7.4203125 C85.6421875,7.4203125 86.3085938,7.73203125 86.7757812,8.23046875 C87.3601562,8.115625 87.909375,7.90234375 88.4046875,7.60859375 C88.2132812,8.20703125 87.80625,8.709375 87.2773438,9.02734375 C87.7960937,8.96484375 88.2898438,8.82734375 88.75,8.6234375 C88.40625,9.1375 87.9710937,9.5890625 87.4703125,9.95078125 M82.5,0 C75.5960937,0 70,5.59609375 70,12.5 C70,19.403125 75.5960937,25 82.5,25 C89.4039062,25 95,19.403125 95,12.5 C95,5.59609375 89.4039062,0 82.5,0" id="Fill-184"></path>
        </g>
    </g>
</svg>