<?xml version="1.0" encoding="UTF-8"?>
<svg width="25px" height="25px" viewBox="0 0 25 25" version="1.1" xmlns="http://www.w3.org/2000/svg" xmlns:xlink="http://www.w3.org/1999/xlink">
    <!-- Generator: Sketch 48.1 (47250) - http://www.bohemiancoding.com/sketch -->
    <title>Group 5</title>
    <desc>Created with Sketch.</desc>
    <defs></defs>
    <g id="Desktop---Home" stroke="none" stroke-width="1" fill="none" fill-rule="evenodd" transform="translate(-1259.000000, -2302.000000)">
        <g id="Group-3" transform="translate(1224.000000, 2302.000000)" fill="#FFFFFF">
            <g id="Group-5" transform="translate(35.000000, 0.000000)">
                <polygon id="Fill-208" points="10.9382812 14.45 14.315625 12.7 10.9375 10.9375"></polygon>
                <path d="M18.75,12.971875 C18.75,13.9835937 18.625,14.9953125 18.625,14.9953125 C18.625,14.9953125 18.503125,15.85625 18.128125,16.2359375 C17.653125,16.7335937 17.1203125,16.7359375 16.8757812,16.7648437 C15.1265625,16.8914062 12.5,16.8953125 12.5,16.8953125 C12.5,16.8953125 9.25,16.865625 8.25,16.7703125 C7.971875,16.7179687 7.346875,16.7335937 6.871875,16.2359375 C6.496875,15.85625 6.375,14.9953125 6.375,14.9953125 C6.375,14.9953125 6.25,13.9835937 6.25,12.971875 L6.25,12.0234375 C6.25,11.0117188 6.375,10.0007812 6.375,10.0007812 C6.375,10.0007812 6.496875,9.1390625 6.871875,8.759375 C7.346875,8.26171875 7.8796875,8.259375 8.12421875,8.23046875 C9.8734375,8.10390625 12.4976563,8.10390625 12.4976563,8.10390625 L12.5023437,8.10390625 C12.5023437,8.10390625 15.1265625,8.10390625 16.8757812,8.23046875 C17.1203125,8.259375 17.653125,8.26171875 18.128125,8.759375 C18.503125,9.1390625 18.625,10.0007812 18.625,10.0007812 C18.625,10.0007812 18.75,11.0117188 18.75,12.0234375 L18.75,12.971875 Z M12.5,0 C5.59609375,0 0,5.59609375 0,12.5 C0,19.403125 5.59609375,25 12.5,25 C19.4039063,25 25,19.403125 25,12.5 C25,5.59609375 19.4039063,0 12.5,0 L12.5,0 Z" id="Fill-207"></path>
            </g>
        </g>
    </g>
</svg>